<svg width="17" height="18" viewBox="0 0 17 18" fill="none" xmlns="http://www.w3.org/2000/svg">
<path fill-rule="evenodd" clip-rule="evenodd" d="M0.425635 0.299072C0.204721 0.299072 0.0256348 0.478158 0.0256348 0.699072C0.0256348 0.919986 0.204721 1.09907 0.425635 1.09907H0.937982C1.65586 1.09907 2.28587 1.57722 2.479 2.26864L4.72123 10.2961C4.72588 10.3128 4.73152 10.3289 4.73806 10.3444L4.98908 11.2703C5.15448 11.8804 5.70818 12.304 6.3403 12.304H14.0052C14.6373 12.304 15.191 11.8804 15.3564 11.2703L16.9441 5.41419C17.1854 4.52407 16.5151 3.64786 15.5929 3.64786H3.69486L3.2495 2.05342C2.95982 1.0163 2.01481 0.299072 0.937982 0.299072H0.425635ZM5.7612 11.061L3.96833 4.44786H15.5929C15.9881 4.44786 16.2754 4.82338 16.172 5.20486L14.5843 11.061C14.5134 11.3224 14.2761 11.504 14.0052 11.504H6.3403C6.06939 11.504 5.83209 11.3224 5.7612 11.061Z" fill="#363A45"/>
<path d="M8.70169 15.4497C8.70169 16.2357 8.06387 16.8734 7.27631 16.8734C6.48875 16.8734 5.85093 16.2357 5.85093 15.4497C5.85093 14.6637 6.48875 14.026 7.27631 14.026C8.06387 14.026 8.70169 14.6637 8.70169 15.4497Z" stroke="#363A45" stroke-width="0.8"/>
<path d="M14.4942 15.4497C14.4942 16.2357 13.8563 16.8734 13.0688 16.8734C12.2812 16.8734 11.6434 16.2357 11.6434 15.4497C11.6434 14.6637 12.2812 14.026 13.0688 14.026C13.8563 14.026 14.4942 14.6637 14.4942 15.4497Z" stroke="#363A45" stroke-width="0.8"/>
</svg>
