<svg width="16" height="14" viewBox="0 0 16 14" fill="none" xmlns="http://www.w3.org/2000/svg">
<path d="M7.88681 2.37161L8.22051 2.87804L8.55464 2.3719C9.80784 0.473542 11.5598 0.0948945 12.9813 0.63139C14.4257 1.17655 15.6 2.69253 15.6 4.74398C15.6 5.45358 15.2158 6.32286 14.5514 7.27687C13.8956 8.21854 13.0067 9.18711 12.0849 10.0844C11.1649 10.98 10.2221 11.795 9.46444 12.4306C9.19227 12.6589 8.94535 12.863 8.7312 13.0399C8.64685 13.1096 8.56758 13.1751 8.49386 13.2362C8.39314 13.3197 8.30016 13.3972 8.21834 13.4666C8.1321 13.3955 8.03386 13.3165 7.92773 13.2317C7.82119 13.1465 7.7045 13.0539 7.57813 12.9536C7.38021 12.7965 7.15856 12.6206 6.91511 12.4251C6.1228 11.7891 5.13398 10.9737 4.16787 10.0777C3.19985 9.17999 2.26533 8.21105 1.57565 7.26916C0.876025 6.31368 0.474463 5.44728 0.474463 4.74398C0.474463 2.69125 1.7264 1.16897 3.27104 0.621516C4.79885 0.0800294 6.64188 0.482269 7.88681 2.37161Z" stroke="#00C65E" stroke-width="0.8"/>
</svg>
