<svg width="12" height="11" viewBox="0 0 12 11" fill="none" xmlns="http://www.w3.org/2000/svg">
<path d="M5.1249 1.2585C5.33928 0.611751 6.2704 0.611751 6.48407 1.2585L7.2487 3.57022C7.29541 3.71101 7.38622 3.83368 7.50815 3.9207C7.63007 4.00772 7.77688 4.05464 7.92757 4.05475H10.4015C11.094 4.05475 11.3812 4.92551 10.8217 5.32578L8.82082 6.7541C8.69865 6.8412 8.60767 6.96407 8.56095 7.10511C8.51422 7.24614 8.51413 7.3981 8.56071 7.53919L9.32533 9.85091C9.53971 10.4977 8.78581 11.0363 8.22484 10.636L6.22396 9.20767C6.10191 9.12059 5.95495 9.0737 5.80413 9.0737C5.6533 9.0737 5.50635 9.12059 5.3843 9.20767L3.38341 10.636C2.82316 11.0363 2.06997 10.4977 2.28363 9.85091L3.04826 7.53919C3.09483 7.3981 3.09475 7.24614 3.04802 7.10511C3.00129 6.96407 2.91032 6.8412 2.78814 6.7541L0.787969 5.32648C0.228434 4.92621 0.516419 4.05545 1.20816 4.05545H3.6814C3.83221 4.05549 3.97917 4.00864 4.10124 3.92161C4.22331 3.83458 4.31423 3.71182 4.36098 3.57092L5.12561 1.2592L5.1249 1.2585Z" fill="#363A45"/>
</svg>
