<svg width="11" height="11" viewBox="0 0 11 11" fill="none" xmlns="http://www.w3.org/2000/svg">
<circle cx="5.5144" cy="5.71875" r="3.89803" fill="#00C65E" stroke="#00C65E" stroke-width="1.76645"/>
<path fill-rule="evenodd" clip-rule="evenodd" d="M5.51432 3.27344C5.34929 3.27344 5.2155 3.40723 5.2155 3.57227V5.41993H3.36768C3.20264 5.41993 3.06885 5.55372 3.06885 5.71876C3.06885 5.88379 3.20264 6.01758 3.36768 6.01758H5.2155V7.86515C5.2155 8.03019 5.34929 8.16398 5.51432 8.16398C5.67936 8.16398 5.81315 8.03019 5.81315 7.86515V6.01758H7.66056C7.8256 6.01758 7.95939 5.88379 7.95939 5.71876C7.95939 5.55372 7.8256 5.41993 7.66056 5.41993H5.81315V3.57227C5.81315 3.40723 5.67936 3.27344 5.51432 3.27344Z" fill="white"/>
</svg>
