<svg width="22" height="18" viewBox="0 0 22 18" fill="none" xmlns="http://www.w3.org/2000/svg">
<path d="M3.23315 9.5625H1.10815C0.799922 9.5625 0.545654 9.30823 0.545654 9V6.875C0.545654 6.56677 0.799922 6.3125 1.10815 6.3125H3.23315C3.54139 6.3125 3.79565 6.56677 3.79565 6.875V9C3.79565 9.30823 3.54139 9.5625 3.23315 9.5625ZM3.23315 14.875H1.10815C0.799922 14.875 0.545654 14.6207 0.545654 14.3125V12.1875C0.545654 11.8793 0.799922 11.625 1.10815 11.625H3.23315C3.54139 11.625 3.79565 11.8793 3.79565 12.1875V14.3125C3.79565 14.6207 3.54139 14.875 3.23315 14.875ZM3.23315 4.25H1.10815C0.799922 4.25 0.545654 3.99573 0.545654 3.6875V1.5625C0.545654 1.25427 0.799922 1 1.10815 1H3.23315C3.54139 1 3.79565 1.25427 3.79565 1.5625V3.6875C3.79565 3.99573 3.54139 4.25 3.23315 4.25ZM17.0457 9.5625H6.42065C6.11242 9.5625 5.85815 9.30823 5.85815 9V6.875C5.85815 6.56677 6.11242 6.3125 6.42065 6.3125H17.0457C17.3539 6.3125 17.6082 6.56677 17.6082 6.875V9C17.6082 9.30823 17.3539 9.5625 17.0457 9.5625ZM17.0457 14.875H6.42065C6.11242 14.875 5.85815 14.6207 5.85815 14.3125V12.1875C5.85815 11.8793 6.11242 11.625 6.42065 11.625H17.0457C17.3539 11.625 17.6082 11.8793 17.6082 12.1875V14.3125C17.6082 14.6207 17.3539 14.875 17.0457 14.875ZM5.85815 3.6875V1.5625C5.85815 1.25427 6.11242 1 6.42065 1H17.0457C17.3539 1 17.6082 1.25427 17.6082 1.5625V3.6875C17.6082 3.99573 17.3539 4.25 17.0457 4.25H6.42065C6.11242 4.25 5.85815 3.99573 5.85815 3.6875Z" stroke="#363A45"/>
<circle cx="16.5144" cy="12.7188" r="3.89803" fill="#00C65E" stroke="#00C65E" stroke-width="1.76645"/>
<path fill-rule="evenodd" clip-rule="evenodd" d="M16.5143 10.2734C16.3493 10.2734 16.2155 10.4072 16.2155 10.5723V12.4199H14.3677C14.2026 12.4199 14.0688 12.5537 14.0688 12.7188C14.0688 12.8838 14.2026 13.0176 14.3677 13.0176H16.2155V14.8651C16.2155 15.0302 16.3493 15.164 16.5143 15.164C16.6794 15.164 16.8132 15.0302 16.8132 14.8651V13.0176H18.6606C18.8256 13.0176 18.9594 12.8838 18.9594 12.7188C18.9594 12.5537 18.8256 12.4199 18.6606 12.4199H16.8132V10.5723C16.8132 10.4072 16.6794 10.2734 16.5143 10.2734Z" fill="white"/>
</svg>
