<svg width="20" height="18" viewBox="0 0 20 18" fill="none" xmlns="http://www.w3.org/2000/svg">
<g clip-path="url(#clip0_275_524)">
<path d="M9.67888 3.32995L10.0143 3.84812L10.3502 3.33023C11.8657 0.993741 13.9917 0.52207 15.7192 1.18566C17.4721 1.859 18.8957 3.73126 18.8957 6.26055C18.8957 7.15144 18.4237 8.22616 17.6288 9.3879C16.8421 10.5377 15.7774 11.718 14.6761 12.8092C13.5764 13.8987 12.4499 14.8899 11.5453 15.6622C11.2203 15.9397 10.9253 16.1878 10.6698 16.4027C10.5692 16.4873 10.4748 16.5667 10.387 16.6408C10.2466 16.7593 10.1197 16.867 10.0124 16.9603C9.89997 16.8652 9.76669 16.7559 9.61946 16.6361C9.49282 16.5331 9.35373 16.4208 9.20301 16.299C8.96664 16.1081 8.70166 15.894 8.41123 15.6567C7.4654 14.8839 6.284 13.8924 5.12935 12.8025C3.97283 11.7108 2.85363 10.5302 2.02631 9.38019C1.18953 8.21706 0.695654 7.14523 0.695654 6.26055C0.695654 3.72623 2.21519 1.84788 4.08564 1.17315C5.93741 0.505166 8.17226 1.00277 9.67888 3.32995Z" stroke="#363A45" stroke-width="0.8"/>
</g>
<defs>
<clipPath id="clip0_275_524">
<rect width="19" height="17" fill="white" transform="translate(0.295654 0.5)"/>
</clipPath>
</defs>
</svg>
