<svg width="17" height="12" viewBox="0 0 17 12" fill="none" xmlns="http://www.w3.org/2000/svg">
<mask id="path-1-inside-1_275_481" fill="white">
<path fill-rule="evenodd" clip-rule="evenodd" d="M0 1.12659C0 0.51302 0.497395 0.015625 1.11096 0.015625H10.8324C11.446 0.015625 11.9434 0.51302 11.9434 1.12659V2.7405H14.6762C15.1111 2.7405 15.5061 2.99434 15.6868 3.39001L16.8996 6.0462C16.9658 6.19104 17 6.34842 17 6.50765V8.68056C17 9.29412 16.5026 9.79152 15.889 9.79152H11.3911V9.79074H1.11097C0.497397 9.79074 0 9.29334 0 8.67977V1.12659Z"/>
</mask>
<path d="M11.9434 2.7405H11.2434V3.4405H11.9434V2.7405ZM15.6868 3.39001L15.05 3.68076L15.6868 3.39001ZM16.8996 6.0462L16.2629 6.33695L16.2629 6.33696L16.8996 6.0462ZM11.3911 9.79152H10.6911V10.4915H11.3911V9.79152ZM11.3911 9.79074H12.0911V9.09074H11.3911V9.79074ZM1.11096 -0.684375C0.110796 -0.684375 -0.7 0.126421 -0.7 1.12659H0.7C0.7 0.89962 0.883994 0.715625 1.11096 0.715625V-0.684375ZM10.8324 -0.684375H1.11096V0.715625H10.8324V-0.684375ZM12.6434 1.12659C12.6434 0.12642 11.8326 -0.684375 10.8324 -0.684375V0.715625C11.0594 0.715625 11.2434 0.899621 11.2434 1.12659H12.6434ZM12.6434 2.7405V1.12659H11.2434V2.7405H12.6434ZM14.6762 2.0405H11.9434V3.4405H14.6762V2.0405ZM16.3235 3.09925C16.029 2.45428 15.3852 2.0405 14.6762 2.0405V3.4405C14.8371 3.4405 14.9832 3.5344 15.05 3.68076L16.3235 3.09925ZM17.5364 5.75544L16.3235 3.09925L15.05 3.68076L16.2629 6.33695L17.5364 5.75544ZM17.7 6.50765C17.7 6.24809 17.6442 5.99156 17.5364 5.75544L16.2629 6.33696C16.2873 6.39053 16.3 6.44875 16.3 6.50765H17.7ZM17.7 8.68056V6.50765H16.3V8.68056H17.7ZM15.889 10.4915C16.8892 10.4915 17.7 9.68072 17.7 8.68056H16.3C16.3 8.90752 16.116 9.09152 15.889 9.09152V10.4915ZM11.3911 10.4915H15.889V9.09152H11.3911V10.4915ZM10.6911 9.79074V9.79152H12.0911V9.79074H10.6911ZM1.11097 10.4907H11.3911V9.09074H1.11097V10.4907ZM-0.7 8.67977C-0.7 9.67994 0.110798 10.4907 1.11097 10.4907V9.09074C0.883995 9.09074 0.7 8.90674 0.7 8.67977H-0.7ZM-0.7 1.12659V8.67977H0.7V1.12659H-0.7Z" fill="#363A45" mask="url(#path-1-inside-1_275_481)"/>
<path d="M14.4317 3.85547H12.583C12.4603 3.85547 12.3608 3.95495 12.3608 4.07766V6.15676C12.3608 6.27948 12.4603 6.37896 12.583 6.37896H15.4583C15.6201 6.37896 15.7276 6.21162 15.6604 6.06447L14.7432 4.05564C14.6875 3.9337 14.5658 3.85547 14.4317 3.85547Z" fill="#00C65E"/>
<path d="M10.8034 9.29857C10.8034 10.1245 11.4729 10.794 12.2988 10.794C13.1248 10.794 13.7943 10.1245 13.7943 9.29857C13.7943 8.47266 13.1248 7.80312 12.2988 7.80312C11.4729 7.80312 10.8034 8.47266 10.8034 9.29857Z" fill="white" stroke="#363A45" stroke-width="0.7"/>
<path d="M12.2996 10.2229C11.79 10.2229 11.3768 9.80977 11.3768 9.30017C11.3768 8.79056 11.79 8.37744 12.2996 8.37744C12.8092 8.37744 13.2223 8.79056 13.2223 9.30017C13.2223 9.80977 12.8092 10.2229 12.2996 10.2229Z" fill="#00C65E"/>
<path d="M3.20598 9.29857C3.20598 10.1245 3.87551 10.794 4.70143 10.794C5.52734 10.794 6.19688 10.1245 6.19688 9.29857C6.19688 8.47266 5.52734 7.80312 4.70143 7.80312C3.87551 7.80312 3.20598 8.47266 3.20598 9.29857Z" fill="white" stroke="#363A45" stroke-width="0.7"/>
<path d="M4.70215 10.2229C4.19255 10.2229 3.77943 9.80977 3.77943 9.30017C3.77943 8.79056 4.19255 8.37744 4.70215 8.37744C5.21176 8.37744 5.62488 8.79056 5.62488 9.30017C5.62488 9.80977 5.21176 10.2229 4.70215 10.2229Z" fill="#00C65E"/>
</svg>
