<svg width="18" height="18" viewBox="0 0 18 18" fill="none" xmlns="http://www.w3.org/2000/svg">
<path fill-rule="evenodd" clip-rule="evenodd" d="M0.721228 0.525391C0.500314 0.525391 0.321228 0.704477 0.321228 0.925391C0.321228 1.1463 0.500314 1.32539 0.721228 1.32539H1.23358C1.95146 1.32539 2.58146 1.80354 2.77459 2.49496L5.01682 10.5224C5.02147 10.5391 5.02711 10.5552 5.03365 10.5707L5.28467 11.4966C5.45007 12.1067 6.00378 12.5303 6.63589 12.5303H14.3008C14.9329 12.5303 15.4866 12.1067 15.652 11.4966L17.2397 5.64051C17.481 4.75039 16.8107 3.87418 15.8885 3.87418H3.99045L3.5451 2.27974C3.25541 1.24261 2.3104 0.525391 1.23358 0.525391H0.721228ZM6.0568 11.2873L4.26392 4.67418H15.8885C16.2837 4.67418 16.571 5.0497 16.4675 5.43118L14.8799 11.2873C14.809 11.5487 14.5717 11.7303 14.3008 11.7303H6.63589C6.36499 11.7303 6.12768 11.5487 6.0568 11.2873Z" fill="#363A45"/>
<path d="M8.99746 15.6763C8.99746 16.4622 8.35964 17.1 7.57208 17.1C6.78453 17.1 6.1467 16.4622 6.1467 15.6763C6.1467 14.8903 6.78453 14.2525 7.57208 14.2525C8.35964 14.2525 8.99746 14.8903 8.99746 15.6763Z" stroke="#363A45" stroke-width="0.8"/>
<path d="M14.7899 15.6763C14.7899 16.4622 14.1521 17.1 13.3646 17.1C12.577 17.1 11.9392 16.4622 11.9392 15.6763C11.9392 14.8903 12.577 14.2525 13.3646 14.2525C14.1521 14.2525 14.7899 14.8903 14.7899 15.6763Z" stroke="#363A45" stroke-width="0.8"/>
</svg>
