<svg width="14" height="16" viewBox="0 0 14 16" fill="none" xmlns="http://www.w3.org/2000/svg">
<path fill-rule="evenodd" clip-rule="evenodd" d="M0.000270024 1.38105C0.000270024 0.663085 0.5823 0.0810547 1.30027 0.0810547H12.7003C13.4182 0.0810547 14.0003 0.663085 14.0003 1.38105C14.0003 2.09902 13.4182 2.68105 12.7003 2.68105H1.30027C0.582299 2.68105 0.000270024 2.09902 0.000270024 1.38105ZM0 7.57832C0 6.86035 0.58203 6.27832 1.3 6.27832H12.7C13.418 6.27832 14 6.86035 14 7.57832C14 8.29629 13.418 8.87832 12.7 8.87832H1.3C0.582029 8.87832 0 8.29629 0 7.57832ZM1.3 12.4756C0.58203 12.4756 0 13.0576 0 13.7756C0 14.4936 0.58203 15.0756 1.3 15.0756H6.7C7.41797 15.0756 8 14.4936 8 13.7756C8 13.0576 7.41797 12.4756 6.7 12.4756H1.3Z" fill="#363A45"/>
</svg>
